<svg xmlns="http://www.w3.org/2000/svg" width="243" height="199"><path d="M0 0 C80.19 0 160.38 0 243 0 C243 65.67 243 131.34 243 199 C162.81 199 82.62 199 0 199 C0 133.33 0 67.66 0 0 Z " fill="#5135CA" transform="translate(0,0)"></path><path d="M0 0 C1.59781392 1.2314362 3.18207449 2.48072697 4.75 3.75 C5.56339844 4.3584375 6.37679687 4.966875 7.21484375 5.59375 C21.95595454 18.13164392 31.31042005 37.99883957 32.95263672 57.10791016 C34.37357516 82.08305239 26.22997086 103.07933815 9.75 121.75 C-8.21493441 137.91590713 -30.00931848 145.77091395 -54.140625 145.05859375 C-71.72292525 144.04293355 -86.56256785 136.54415381 -100.25 125.75 C-101.06597656 125.14285156 -101.88195312 124.53570312 -102.72265625 123.91015625 C-105.73248259 121.33761534 -108.18936856 118.4765806 -110.625 115.375 C-111.10251709 114.76793213 -111.58003418 114.16086426 -112.07202148 113.53540039 C-125.50242489 95.91889723 -130.66992623 74.36975466 -127.97314453 52.50537109 C-125.16578836 34.71748452 -116.44095817 18.97576611 -103.25 6.75 C-102.651875 6.15832031 -102.05375 5.56664063 -101.4375 4.95703125 C-73.85870225 -21.25296587 -30.2532727 -21.63837018 0 0 Z " fill="#5236CA" transform="translate(174.25,33.25)"></path><path d="M0 0 C1.59781392 1.2314362 3.18207449 2.48072697 4.75 3.75 C5.56339844 4.3584375 6.37679687 4.966875 7.21484375 5.59375 C21.95595454 18.13164392 31.31042005 37.99883957 32.95263672 57.10791016 C34.37357516 82.08305239 26.22997086 103.07933815 9.75 121.75 C-8.21493441 137.91590713 -30.00931848 145.77091395 -54.140625 145.05859375 C-71.72292525 144.04293355 -86.56256785 136.54415381 -100.25 125.75 C-101.06597656 125.14285156 -101.88195312 124.53570312 -102.72265625 123.91015625 C-105.73248259 121.33761534 -108.18936856 118.4765806 -110.625 115.375 C-111.10251709 114.76793213 -111.58003418 114.16086426 -112.07202148 113.53540039 C-125.50242489 95.91889723 -130.66992623 74.36975466 -127.97314453 52.50537109 C-125.16578836 34.71748452 -116.44095817 18.97576611 -103.25 6.75 C-102.651875 6.15832031 -102.05375 5.56664063 -101.4375 4.95703125 C-73.85870225 -21.25296587 -30.2532727 -21.63837018 0 0 Z M-98.25 16.75 C-99.18779297 17.67039062 -99.18779297 17.67039062 -100.14453125 18.609375 C-112.71284329 31.88695973 -117.88486797 48.30963835 -117.58691406 66.29956055 C-117.23766598 76.2046241 -115.84103053 84.90349599 -111.25 93.75 C-110.85167969 94.60078125 -110.45335937 95.4515625 -110.04296875 96.328125 C-101.73638468 113.08492284 -86.35344477 125.53665855 -68.78295898 131.6015625 C-61.83467758 133.69972243 -55.29956895 134.29440609 -48.0625 134.25 C-46.97042236 134.24427979 -45.87834473 134.23855957 -44.75317383 134.23266602 C-25.82889442 133.81783754 -10.60214591 126.05554156 2.75 112.75 C3.37519531 112.14800781 4.00039062 111.54601562 4.64453125 110.92578125 C18.02703697 96.99951684 22.30128419 78.70899927 22.02734375 60.01171875 C21.31732666 40.57985799 11.7201935 24.8893833 -2.08203125 11.62109375 C-30.52522938 -12.92717995 -72.36136776 -9.09345139 -98.25 16.75 Z " fill="#FAF9FD" transform="translate(174.25,33.25)"></path><path d="M0 0 C0.68372681 -0.00191345 1.36745361 -0.0038269 2.07189941 -0.00579834 C3.52449917 -0.00716116 4.97711105 -0.00345795 6.4296875 0.00488281 C8.62008264 0.01545051 10.80963271 0.00506036 13 -0.0078125 C26.22105162 -0.02309663 36.03867793 0.93414192 46.1328125 10.05078125 C54.5045111 18.72528597 55.74761048 28.37973648 55.62915039 39.98242188 C55.27667119 50.09255686 52.07627503 57.80828038 45.15625 65.265625 C34.89770005 74.11813485 24.20445478 76.2031491 11.11083984 75.828125 C8.86620185 75.76448964 6.62436653 75.74602712 4.37890625 75.734375 C-6.51401857 75.59535643 -6.51401857 75.59535643 -8.84375 73.265625 C-9.09771729 70.34313965 -9.09771729 70.34313965 -9.10253906 66.55273438 C-9.1060437 65.8631514 -9.10954834 65.17356842 -9.11315918 64.46308899 C-9.12197829 62.17841595 -9.11612687 59.89405132 -9.109375 57.609375 C-9.1107216 56.02518657 -9.11266209 54.44099854 -9.11517334 52.85681152 C-9.11812484 49.53454662 -9.11382618 46.21238915 -9.10449219 42.89013672 C-9.09309758 38.62600909 -9.09965692 34.36213321 -9.11163712 30.09801483 C-9.11885505 26.82613214 -9.11656811 23.5543094 -9.11138153 20.28242493 C-9.11004485 18.70990469 -9.11169341 17.13737905 -9.11634064 15.56486511 C-9.12140485 13.36926807 -9.1136975 11.17408196 -9.10253906 8.97851562 C-9.10094788 7.72768188 -9.09935669 6.47684814 -9.09771729 5.18811035 C-8.58359837 -0.72802564 -5.05772264 0.00900867 0 0 Z " fill="#F8F7FD" transform="translate(107.84375,59.734375)"></path><path d="M0 0 C25 0 25 0 35 5 C41.06852566 12.13317928 42.23723998 15.88893493 42.375 25.0625 C42.43107422 26.43825195 42.43107422 26.43825195 42.48828125 27.84179688 C42.59513606 36.21802709 40.01877772 41.84400511 34.25 47.875 C23.00990341 55.22429392 13.91241063 53 0 53 C0 35.51 0 18.02 0 0 Z " fill="#5135C9" transform="translate(110,71)"></path></svg>